<svg t="1730700346661" class="icon" viewBox="0 0 1024 1024" version="1.1" xmlns="http://www.w3.org/2000/svg" p-id="1489" width="200" height="200"><path d="M512 512m-512 0a512 512 0 1 0 1024 0 512 512 0 1 0-1024 0Z" fill="#5595DA" p-id="1490"></path><path d="M159.264 595.2V456.7104h46.7968v-25.312H80.288v25.312h46.1248V595.2h32.8512z m97.6512 0v-59.3984H286.72c18.8224 0 33.6384-4.7616 44.4352-14.2912 10.8032-9.5232 16.1984-22.1248 16.1984-37.7984 0-15.68-5.3952-28.3136-16.192-37.9136-10.8032-9.6-25.6192-14.4-44.4416-14.4H224.064V595.2h32.8512zM286.72 510.4896h-29.8112V456.704H286.72c9.2224 0 16.1792 2.5728 20.864 7.7056 4.6912 5.1392 7.04 11.648 7.04 19.52 0 7.7248-2.368 14.08-7.0912 19.072-4.7296 4.9856-11.6672 7.4816-20.8128 7.4816z m151.7632 27.3344V512.512H372.224v25.312h66.2656zM577.4272 595.2v-25.2032H504.0768V431.3984h-32.8512V595.2h106.2016z m56.9216 0V431.3984h-32.8512V595.2h32.8512z m65.3632 0V484.8384l0.6784-0.1152L766.4256 595.2h32.8512V431.3984h-32.8512v110.2528l-0.6784 0.1088-66.0352-110.3616h-32.8512V595.2h32.8512z m162.56 0V526.7968h12.0384L919.5392 595.2h41.8496l-61.088-87.6352 56.704-76.16h-40.6144l-44.8896 66.9312h-9.2288V431.3984h-32.8448V595.2h32.8448z" fill="#FFFFFF" p-id="1491"></path></svg>
